<?xml version="1.0" encoding="utf-8"?>
<!-- Generator: Adobe Illustrator 16.0.0, SVG Export Plug-In . SVG Version: 6.00 Build 0)  -->
<!DOCTYPE svg PUBLIC "-//W3C//DTD SVG 1.1//EN" "http://www.w3.org/Graphics/SVG/1.1/DTD/svg11.dtd">
<svg version="1.1" id="Calque_1" xmlns="http://www.w3.org/2000/svg" xmlns:xlink="http://www.w3.org/1999/xlink" x="0px" y="0px"
	 width="222.553px" height="224.544px" viewBox="0 0 222.553 224.544" enable-background="new 0 0 222.553 224.544"
	 xml:space="preserve">
<g>
	<path fill="#004B76" d="M111.381,224.544c-1.603,0-3.175-0.292-4.673-0.868l-57.382-22.09c-2.068-0.796-3.458-2.834-3.458-5.073
		c0-3,2.405-5.44,5.368-5.44c0.654,0,1.304,0.124,1.928,0.364l58.214,22.447l58.031-22.457c0.627-0.24,1.274-0.364,1.925-0.364
		c2.947,0,5.352,2.428,5.352,5.415c0,2.226-1.378,4.261-3.438,5.054l-57.184,22.139C114.566,224.248,112.99,224.544,111.381,224.544
		"/>
	<path fill="#004B76" d="M170.295,33.472c-0.653,0-1.303-0.12-1.93-0.364l-58.208-22.451L52.125,33.114
		c-0.631,0.243-1.274,0.367-1.927,0.367c-2.951,0.003-5.353-2.428-5.353-5.415c-0.003-2.226,1.381-4.257,3.439-5.053l57.183-22.141
		C106.969,0.296,108.545,0,110.154,0c1.596,0,3.172,0.289,4.667,0.867l57.382,22.091c2.069,0.8,3.461,2.838,3.461,5.072
		C175.665,31.03,173.256,33.469,170.295,33.472"/>
	<path fill="#6C4474" d="M26.003,176.305l-10.491-4.053L15.463,52.584l10.488-4.063c2.99-1.157,4.963-4.057,4.963-7.29
		c-0.003-5.473-5.441-9.242-10.501-7.283l-10.488,4.06C3.945,40.325,0,46.123,0,52.587l0.049,119.675
		c0.003,6.468,3.955,12.26,9.938,14.573l10.491,4.049c5.063,1.957,10.497-1.819,10.494-7.293
		C30.969,180.358,28.993,177.459,26.003,176.305"/>
	<path fill="#6C4474" d="M212.552,37.916l-10.48-4.037c-5.064-1.945-10.491,1.827-10.488,7.298c0,3.236,1.979,6.136,4.977,7.285
		l10.483,4.037l0.049,119.675l-10.48,4.047c-2.993,1.153-4.974,4.056-4.974,7.29c0.004,5.472,5.438,9.239,10.495,7.289l10.481-4.046
		c5.989-2.312,9.942-8.112,9.938-14.586l-0.049-119.676C222.504,46.021,218.543,40.224,212.552,37.916"/>
	<path fill="#004B76" d="M111.146,26.205c-1.456,0-2.906,0.267-4.284,0.801L35.158,54.764c-4.635,1.794-7.693,6.285-7.693,11.297
		l0.039,92.706c0.003,5.011,3.064,9.5,7.699,11.29l71.728,27.697c1.377,0.533,2.833,0.796,4.283,0.796
		c1.45,0,2.899-0.263,4.274-0.796l71.916-27.758c4.641-1.788,7.702-6.286,7.702-11.302l-0.039-92.706
		c0-5.015-3.068-9.506-7.709-11.294l-71.942-27.696C114.042,26.466,112.591,26.205,111.146,26.205 M111.149,38.296l71.938,27.696
		l0.039,92.71l-71.916,27.758l-71.728-27.696l-0.039-92.71L111.149,38.296z"/>
</g>
</svg>
