<?xml version="1.0" encoding="utf-8"?>
<!-- Generator: Adobe Illustrator 16.0.0, SVG Export Plug-In . SVG Version: 6.00 Build 0)  -->
<!DOCTYPE svg PUBLIC "-//W3C//DTD SVG 1.1//EN" "http://www.w3.org/Graphics/SVG/1.1/DTD/svg11.dtd">
<svg version="1.1" id="Calque_1" xmlns="http://www.w3.org/2000/svg" xmlns:xlink="http://www.w3.org/1999/xlink" x="0px" y="0px"
	 width="222.553px" height="224.545px" viewBox="0 0 222.553 224.545" enable-background="new 0 0 222.553 224.545"
	 xml:space="preserve">
<g>
	<path fill="#004B76" d="M111.382,224.545c-1.603,0-3.175-0.293-4.673-0.869l-57.382-22.09c-2.067-0.797-3.459-2.834-3.459-5.072
		c0-3,2.406-5.441,5.37-5.441c0.653,0,1.303,0.123,1.927,0.363l58.214,22.449l58.031-22.459c0.627-0.24,1.274-0.363,1.925-0.363
		c2.947,0,5.352,2.428,5.352,5.414c0,2.227-1.378,4.262-3.438,5.055l-57.184,22.139C114.566,224.248,112.99,224.545,111.382,224.545
		"/>
	<path fill="#004B76" d="M170.296,33.472c-0.653,0-1.304-0.12-1.931-0.364l-58.208-22.451L52.125,33.115
		c-0.631,0.243-1.274,0.367-1.927,0.367c-2.951,0.003-5.353-2.428-5.353-5.415c-0.003-2.226,1.381-4.257,3.439-5.053l57.183-22.14
		C106.969,0.296,108.545,0,110.154,0c1.596,0,3.172,0.29,4.667,0.868l57.382,22.09c2.07,0.8,3.461,2.838,3.461,5.073
		C175.664,31.031,173.257,33.469,170.296,33.472"/>
	<path fill="#55479C" d="M26.003,176.305l-10.491-4.053L15.463,52.584l10.488-4.062c2.99-1.158,4.963-4.057,4.963-7.29
		c-0.003-5.473-5.441-9.243-10.501-7.284l-10.488,4.06C3.945,40.325,0,46.123,0,52.587l0.049,119.675
		c0.003,6.467,3.955,12.26,9.938,14.572l10.491,4.049c5.064,1.957,10.498-1.818,10.494-7.293
		C30.969,180.357,28.993,177.459,26.003,176.305"/>
	<path fill="#55479C" d="M212.553,37.917l-10.481-4.037c-5.063-1.946-10.49,1.827-10.487,7.297c0,3.237,1.979,6.136,4.976,7.286
		l10.484,4.037l0.049,119.674l-10.481,4.047c-2.993,1.152-4.973,4.055-4.973,7.289c0.003,5.473,5.437,9.24,10.495,7.289l10.48-4.045
		c5.99-2.313,9.942-8.113,9.938-14.586l-0.048-119.675C222.505,46.021,218.543,40.224,212.553,37.917"/>
	<path fill="#004B76" d="M111.146,26.206c-1.456,0-2.906,0.266-4.284,0.8L35.157,54.764c-4.634,1.794-7.692,6.285-7.692,11.297
		l0.039,92.705c0.003,5.012,3.064,9.5,7.699,11.291l71.728,27.697c1.377,0.533,2.833,0.795,4.283,0.795
		c1.45,0,2.899-0.262,4.274-0.795l71.916-27.758c4.641-1.789,7.702-6.287,7.702-11.301l-0.039-92.707
		c0-5.015-3.068-9.506-7.709-11.294l-71.942-27.696C114.042,26.466,112.592,26.206,111.146,26.206 M111.149,38.296l71.938,27.697
		l0.039,92.708l-71.916,27.758l-71.728-27.695l-0.039-92.71L111.149,38.296z"/>
</g>
</svg>
